<?xml version="1.0" encoding="UTF-8" standalone="no" ?>
<!DOCTYPE svg PUBLIC "-//W3C//DTD SVG 1.1//EN" "http://www.w3.org/Graphics/SVG/1.1/DTD/svg11.dtd">
<svg xmlns="http://www.w3.org/2000/svg" xmlns:xlink="http://www.w3.org/1999/xlink" version="1.1" width="445" height="445" viewBox="0 0 445 445" xml:space="preserve">
<desc>Created with Fabric.js 1.7.22</desc>
<defs>
</defs>
<g id="icon" style="stroke: none; stroke-width: 1; stroke-dasharray: none; stroke-linecap: butt; stroke-linejoin: miter; stroke-miterlimit: 10; fill: none; fill-rule: nonzero; opacity: 1;" transform="translate(-2.4722222222222285 -2.4722222222222285) scale(4.94 4.94)" >
	<path d="M 61.837 74.339 c 3.936 -23.228 -20.136 -33.78 -20.271 -40.99 c 0.135 -5.187 7.53 -5.831 12.927 2.143 c 2.003 2.78 4.285 0.931 6.621 -1.834 c 3.051 0.48 3.988 -0.122 5.194 -1.328 c 2.277 -3.148 0.425 -4.909 -1.095 -5.935 C 53.25 18.042 53.964 7.207 41.567 9.017 V 0 c -4.653 1.328 -7.291 5.341 -9.144 10.399 c -17.79 12.606 -14.54 29.809 -5.675 48.24 c 3.912 7.504 2.311 12.123 0.935 15.7 H 61.837 z" style="stroke: none; stroke-width: 1; stroke-dasharray: none; stroke-linecap: butt; stroke-linejoin: miter; stroke-miterlimit: 10; fill: rgb(0,0,0); fill-rule: nonzero; opacity: 1;" transform=" matrix(1 0 0 1 0 0) " stroke-linecap="round" />
	<path d="M 63.409 78.672 H 26.591 c -2.288 0 -4.16 -1.872 -4.16 -4.16 v 0 c 0 -2.288 1.872 -4.16 4.16 -4.16 h 36.818 c 2.288 0 4.16 1.872 4.16 4.16 v 0 C 67.569 76.8 65.697 78.672 63.409 78.672 z" style="stroke: none; stroke-width: 1; stroke-dasharray: none; stroke-linecap: butt; stroke-linejoin: miter; stroke-miterlimit: 10; fill: rgb(0,0,0); fill-rule: nonzero; opacity: 1;" transform=" matrix(1 0 0 1 0 0) " stroke-linecap="round" />
	<path d="M 78.033 90 H 11.967 v 0 c 0 -7.672 6.219 -13.892 13.892 -13.892 h 38.283 C 71.814 76.108 78.033 82.328 78.033 90 L 78.033 90 z" style="stroke: none; stroke-width: 1; stroke-dasharray: none; stroke-linecap: butt; stroke-linejoin: miter; stroke-miterlimit: 10; fill: rgb(0,0,0); fill-rule: nonzero; opacity: 1;" transform=" matrix(1 0 0 1 0 0) " stroke-linecap="round" />
	<path d="M 51.289 17.626 l -4.023 -2.901 c -0.465 1.091 0.596 3.212 3.181 6.362 C 52.109 19.723 52.671 18.526 51.289 17.626 z" style="stroke: none; stroke-width: 1; stroke-dasharray: none; stroke-linecap: butt; stroke-linejoin: miter; stroke-miterlimit: 10; fill: rgb(255,255,255); fill-rule: nonzero; opacity: 1;" transform=" matrix(1 0 0 1 0 0) " stroke-linecap="round" />
</g>
</svg>