<?xml version="1.0" standalone="no"?>
<!DOCTYPE svg PUBLIC "-//W3C//DTD SVG 20010904//EN"
 "http://www.w3.org/TR/2001/REC-SVG-20010904/DTD/svg10.dtd">
<svg version="1.0" xmlns="http://www.w3.org/2000/svg"
 width="700.000000pt" height="700.000000pt" viewBox="0 0 700.000000 700.000000"
 preserveAspectRatio="xMidYMid meet">
<metadata>
Created by potrace 1.14, written by Peter Selinger 2001-2017
</metadata>
<g transform="translate(0.000000,700.000000) scale(0.100000,-0.100000)"
fill="#000000" stroke="none">
<path d="M3016 6965 c-221 -133 -371 -326 -501 -647 -26 -63 -43 -90 -72 -113
-211 -165 -230 -181 -353 -305 -322 -324 -512 -688 -581 -1115 -30 -188 -32
-527 -4 -700 3 -16 7 -43 10 -60 3 -16 8 -46 10 -65 3 -19 12 -66 20 -105 9
-38 17 -79 19 -90 44 -222 220 -730 347 -1003 21 -46 39 -86 39 -88 0 -2 34
-75 76 -162 113 -233 160 -365 191 -532 10 -55 11 -308 1 -358 l-11 -52 -118
0 c-155 0 -211 -19 -290 -99 -85 -87 -114 -201 -79 -312 l18 -58 -57 -16
c-358 -101 -642 -382 -745 -739 -27 -93 -33 -121 -42 -223 -4 -41 -3 -73 2
-74 25 -3 5111 -4 5120 -1 12 3 12 34 -2 137 -21 165 -84 331 -180 470 -26 38
-52 74 -58 80 -6 7 -30 33 -54 59 -58 63 -192 163 -277 208 -77 40 -206 88
-235 88 -28 0 -31 13 -14 64 22 63 15 166 -15 229 -12 27 -43 69 -67 94 -63
63 -120 86 -226 91 l-88 4 -1 92 c-2 151 -16 300 -35 386 -3 14 -8 39 -11 55
-7 42 -70 261 -87 299 -7 17 -28 67 -46 111 -38 89 -123 256 -151 297 -11 14
-19 31 -19 37 0 6 -4 11 -10 11 -5 0 -10 4 -10 9 0 11 -91 146 -158 236 -67
88 -175 218 -266 319 -86 95 -116 127 -345 361 -319 328 -412 446 -451 574
-24 76 -25 111 -5 178 49 165 214 245 412 198 189 -44 390 -196 547 -410 67
-92 85 -109 143 -136 83 -39 174 1 307 134 l91 92 120 0 c101 0 127 3 167 22
114 52 202 183 201 299 -1 100 -39 158 -162 249 -192 143 -233 179 -374 320
-123 123 -230 253 -457 556 -67 89 -174 210 -235 268 -121 112 -238 175 -388
207 -76 16 -250 21 -335 9 l-52 -7 0 331 0 331 -58 0 c-49 0 -68 -6 -116 -35z"/>
</g>
</svg>
